<?xml version="1.0" standalone="no"?>
<!DOCTYPE svg PUBLIC "-//W3C//DTD SVG 20010904//EN"
 "http://www.w3.org/TR/2001/REC-SVG-20010904/DTD/svg10.dtd">
<svg version="1.0" xmlns="http://www.w3.org/2000/svg"
 width="512.000000pt" height="512.000000pt" viewBox="0 0 512.000000 512.000000"
 preserveAspectRatio="xMidYMid meet">
<metadata>
Created by potrace 1.14, written by Peter Selinger 2001-2017
</metadata>
<g transform="translate(0.000000,512.000000) scale(0.100000,-0.100000)"
fill="#000000" stroke="none">
<path d="M1070 3914 c-164 -26 -358 -102 -498 -194 -87 -58 -211 -177 -284
-274 -182 -241 -279 -611 -249 -954 20 -219 66 -391 155 -578 177 -368 463
-609 826 -695 129 -31 460 -34 585 -6 394 90 632 266 780 580 89 189 125 379
132 710 l6 237 -612 0 -611 0 0 -245 0 -245 311 0 312 0 -6 -44 c-17 -122
-113 -275 -216 -344 -92 -61 -160 -84 -272 -90 -118 -6 -220 14 -317 63 -212
108 -361 297 -422 535 -29 114 -25 318 9 425 87 271 282 479 521 556 49 16 91
21 170 21 179 0 255 -36 446 -209 l111 -101 212 212 213 213 -69 63 c-184 169
-433 300 -668 350 -134 29 -427 36 -565 14z"/>
<path d="M2850 3630 l0 -270 569 -2 568 -3 -581 -930 c-320 -511 -623 -992
-674 -1067 -50 -76 -92 -140 -92 -143 0 -3 524 -5 1165 -5 l1165 0 0 290 0
290 -595 0 -594 0 68 108 c38 59 178 283 312 497 133 215 323 518 422 675 162
256 465 750 496 808 l12 22 -1121 0 -1120 0 0 -270z"/>
</g>
</svg>
